<svg xmlns="http://www.w3.org/2000/svg" viewBox="0 0 64 64" width="64" height="64">
<rect x="2" y="2" width="60" height="60" rx="13" fill="#1c2116"/>
<rect x="3" y="3" width="58" height="58" rx="12" fill="none" stroke="#4a5039" stroke-width="1.5"/>
<rect x="5.5" y="5.5" width="53" height="53" rx="9" fill="none" stroke="#2a3020" stroke-width="1"/>
<path d="M32 32 L32 12 M32 32 L52 32 M32 32 L32 52 M32 32 L12 32" fill="none" stroke="#185FA5" stroke-width="2.8" stroke-linecap="round"/>
<path d="M32 32 L19 19 M32 32 L45 19 M32 32 L45 45 M32 32 L19 45" fill="none" stroke="#185FA5" stroke-width="2" stroke-linecap="round"/>
<circle cx="19" cy="19" r="4.4" fill="#185FA5" stroke="#0C447C" stroke-width="1.5"/>
<path d="M19 14.6 a4.4 4.4 0 0 0 0 8.8 z" fill="#378ADD" stroke="#0C447C" stroke-width="1.5" stroke-linejoin="round"/>
<circle cx="45" cy="19" r="4.4" fill="#185FA5" stroke="#0C447C" stroke-width="1.5"/>
<path d="M45 14.6 a4.4 4.4 0 0 0 0 8.8 z" fill="#378ADD" stroke="#0C447C" stroke-width="1.5" stroke-linejoin="round"/>
<circle cx="45" cy="45" r="4.4" fill="#185FA5" stroke="#0C447C" stroke-width="1.5"/>
<path d="M45 40.6 a4.4 4.4 0 0 0 0 8.8 z" fill="#378ADD" stroke="#0C447C" stroke-width="1.5" stroke-linejoin="round"/>
<circle cx="19" cy="45" r="4.4" fill="#185FA5" stroke="#0C447C" stroke-width="1.5"/>
<path d="M19 40.6 a4.4 4.4 0 0 0 0 8.8 z" fill="#378ADD" stroke="#0C447C" stroke-width="1.5" stroke-linejoin="round"/>
<circle cx="32" cy="12" r="5.6" fill="#185FA5" stroke="#0C447C" stroke-width="1.6"/>
<path d="M32 6.4 a5.6 5.6 0 0 0 0 11.2 z" fill="#378ADD" stroke="#0C447C" stroke-width="1.6" stroke-linejoin="round"/>
<circle cx="30.4" cy="10.2" r="1.5" fill="#B5D4F4"/>
<circle cx="52" cy="32" r="5.6" fill="#185FA5" stroke="#0C447C" stroke-width="1.6"/>
<path d="M52 26.4 a5.6 5.6 0 0 0 0 11.2 z" fill="#378ADD" stroke="#0C447C" stroke-width="1.6" stroke-linejoin="round"/>
<circle cx="50.4" cy="30.2" r="1.5" fill="#B5D4F4"/>
<circle cx="32" cy="52" r="5.6" fill="#185FA5" stroke="#0C447C" stroke-width="1.6"/>
<path d="M32 46.4 a5.6 5.6 0 0 0 0 11.2 z" fill="#378ADD" stroke="#0C447C" stroke-width="1.6" stroke-linejoin="round"/>
<circle cx="30.4" cy="50.2" r="1.5" fill="#B5D4F4"/>
<circle cx="12" cy="32" r="5.6" fill="#185FA5" stroke="#0C447C" stroke-width="1.6"/>
<path d="M12 26.4 a5.6 5.6 0 0 0 0 11.2 z" fill="#378ADD" stroke="#0C447C" stroke-width="1.6" stroke-linejoin="round"/>
<circle cx="10.4" cy="30.2" r="1.5" fill="#B5D4F4"/>
<circle cx="32" cy="32" r="8.6" fill="#378ADD" stroke="#0C447C" stroke-width="1.7"/>
<path d="M32 23.4 a8.6 8.6 0 0 0 0 17.2 z" fill="#85B7EB" stroke="#0C447C" stroke-width="1.7" stroke-linejoin="round"/>
<circle cx="32" cy="32" r="2.6" fill="#B5D4F4" stroke="#0C447C" stroke-width="1.2"/>
</svg>
